<svg width="98" height="56" viewBox="0 0 98 56" fill="none" xmlns="http://www.w3.org/2000/svg">
<path d="M85.1308 47.743C85.1308 27.559 68.7795 11.1968 48.6089 11.1968C28.4382 11.1968 12.0867 27.559 12.0867 47.743" stroke="#D7DEE1" stroke-width="8" stroke-dasharray="1 40"/>
<path d="M92.0885 54.3237H91.5348V50.6923H90.6184V50.3144C90.7457 50.3059 90.8624 50.2952 90.9684 50.2824C91.0745 50.2653 91.1721 50.2375 91.2612 50.1991C91.3502 50.1607 91.4309 50.1094 91.503 50.0454C91.5751 49.9814 91.6409 49.8981 91.7003 49.7956H92.0885V54.3237ZM96.9999 52.0629C96.9999 52.3532 96.9702 52.6371 96.9108 52.9147C96.8557 53.1922 96.7602 53.4399 96.6245 53.6576C96.4887 53.8711 96.3084 54.044 96.0835 54.1764C95.8587 54.3088 95.5787 54.3749 95.2435 54.3749C94.9041 54.3749 94.622 54.3088 94.3971 54.1764C94.1723 54.044 93.992 53.8711 93.8562 53.6576C93.7204 53.4399 93.625 53.1965 93.5698 52.9275C93.5147 52.6585 93.4871 52.3703 93.4871 52.0629C93.4871 51.7554 93.5147 51.4672 93.5698 51.1982C93.625 50.925 93.7204 50.6816 93.8562 50.4681C93.992 50.2546 94.1723 50.0817 94.3971 49.9493C94.622 49.8127 94.9041 49.7444 95.2435 49.7444C95.5787 49.7444 95.8587 49.8106 96.0835 49.9429C96.3084 50.0753 96.4887 50.2503 96.6245 50.4681C96.7602 50.6859 96.8557 50.9335 96.9108 51.211C96.9702 51.4886 96.9999 51.7725 96.9999 52.0629ZM94.0535 52.0629C94.0535 52.2678 94.0683 52.477 94.098 52.6905C94.1277 52.904 94.185 53.0983 94.2698 53.2733C94.3547 53.4484 94.4735 53.5914 94.6262 53.7024C94.7832 53.8135 94.989 53.869 95.2435 53.869C95.4938 53.869 95.6953 53.8135 95.8481 53.7024C96.005 53.5914 96.126 53.4484 96.2108 53.2733C96.2957 53.0983 96.3529 52.904 96.3826 52.6905C96.4123 52.477 96.4272 52.2678 96.4272 52.0629C96.4272 51.8622 96.4123 51.6551 96.3826 51.4416C96.3529 51.2281 96.2957 51.0338 96.2108 50.8588C96.126 50.6795 96.005 50.5343 95.8481 50.4233C95.6953 50.308 95.4938 50.2503 95.2435 50.2503C94.989 50.2503 94.7832 50.308 94.6262 50.4233C94.4735 50.5343 94.3547 50.6795 94.2698 50.8588C94.185 51.0338 94.1277 51.2281 94.098 51.4416C94.0683 51.6551 94.0535 51.8622 94.0535 52.0629Z" fill="#121212"/>
<path d="M5.51284 52.0629C5.51284 52.3532 5.48315 52.6371 5.42375 52.9147C5.3686 53.1922 5.27314 53.4399 5.13738 53.6576C5.00161 53.8711 4.82131 54.044 4.59645 54.1764C4.37159 54.3088 4.09158 54.3749 3.75642 54.3749C3.41702 54.3749 3.13489 54.3088 2.91003 54.1764C2.68517 54.044 2.50487 53.8711 2.3691 53.6576C2.23334 53.4399 2.13788 53.1965 2.08273 52.9275C2.02758 52.6585 2 52.3703 2 52.0629C2 51.7554 2.02758 51.4672 2.08273 51.1982C2.13788 50.925 2.23334 50.6816 2.3691 50.4681C2.50487 50.2546 2.68517 50.0817 2.91003 49.9493C3.13489 49.8127 3.41702 49.7444 3.75642 49.7444C4.09158 49.7444 4.37159 49.8106 4.59645 49.9429C4.82131 50.0753 5.00161 50.2503 5.13738 50.4681C5.27314 50.6859 5.3686 50.9335 5.42375 51.211C5.48315 51.4886 5.51284 51.7725 5.51284 52.0629ZM2.56638 52.0629C2.56638 52.2678 2.58123 52.477 2.61093 52.6905C2.64063 52.904 2.6979 53.0983 2.78275 53.2733C2.8676 53.4484 2.9864 53.5914 3.13913 53.7024C3.2961 53.8135 3.50187 53.869 3.75642 53.869C4.00673 53.869 4.20826 53.8135 4.36099 53.7024C4.51796 53.5914 4.63888 53.4484 4.72373 53.2733C4.80858 53.0983 4.86585 52.904 4.89555 52.6905C4.92525 52.477 4.9401 52.2678 4.9401 52.0629C4.9401 51.8622 4.92525 51.6551 4.89555 51.4416C4.86585 51.2281 4.80858 51.0338 4.72373 50.8588C4.63888 50.6795 4.51796 50.5343 4.36099 50.4233C4.20826 50.308 4.00673 50.2503 3.75642 50.2503C3.50187 50.2503 3.2961 50.308 3.13913 50.4233C2.9864 50.5343 2.8676 50.6795 2.78275 50.8588C2.6979 51.0338 2.64063 51.2281 2.61093 51.4416C2.58123 51.6551 2.56638 51.8622 2.56638 52.0629Z" fill="#121212"/>
<path d="M3.6239 47.875C3.6239 36.2386 8.37173 25.0789 16.8229 16.8507C25.2741 8.6225 36.7364 4 48.6881 4C60.6399 4 72.1022 8.6225 80.5535 16.8507C89.0048 25.0789 93.7521 36.2386 93.7521 47.8749" stroke="#F0F0F0" stroke-width="7"/>
<path d="M3.6239 47.875C3.6239 37.066 7.73387 26.6374 15.1658 18.5888C22.5977 10.5402 32.8284 5.43822 43.8962 4.26107C54.9641 3.08391 66.0899 5.91445 75.1403 12.21C84.1909 18.5055 90.5299 27.8228 92.9401 38.3755" stroke="#136EF6" stroke-width="7"/>
</svg>
