<svg width="150" height="75" viewBox="0 0 150 75" fill="none" xmlns="http://www.w3.org/2000/svg">
<path d="M62 65.1347L48.4992 70.74C48.0182 70.9375 47.4891 71.0248 46.9603 70.9939C46.4315 70.9631 45.9198 70.815 45.4722 70.5633C45.0245 70.3116 44.6552 69.9642 44.398 69.5531C44.1408 69.142 44.004 68.6802 44 68.21V35" stroke="#F0F0F0" stroke-width="0.5" stroke-miterlimit="10" stroke-linecap="round"/>
<path d="M81.01 80.4183V57.4601C81.0092 56.7836 80.8333 56.1189 80.4993 55.5306C80.1653 54.9423 79.6847 54.4505 79.1042 54.1031C78.5237 53.7558 77.8632 53.5647 77.1869 53.5484C76.5106 53.5321 75.8416 53.6912 75.2451 54.0103L66.7375 58.572C65.2731 59.3575 64.0491 60.5253 63.1956 61.9511C62.3422 63.3769 61.8912 65.0074 61.8906 66.6691V89.1973" stroke="#F0F0F0" stroke-width="0.5" stroke-miterlimit="10" stroke-linecap="round"/>
<path d="M70 55V17.3551C70.0008 16.4684 70.2756 15.6033 70.7875 14.876C71.2994 14.1488 72.0238 13.5943 72.8633 13.2872L101 3" stroke="#989DA8" stroke-width="0.5" stroke-linecap="round" stroke-linejoin="round" stroke-dasharray="2.24 2.24"/>
<path d="M105.709 4.34881C106.468 2.93678 106.336 1.39092 105.415 0.896046C104.494 0.40117 103.132 1.14467 102.374 2.5567C101.615 3.96873 101.747 5.51458 102.668 6.00945C103.589 6.50433 104.95 5.76083 105.709 4.34881Z" stroke="#989DA8" stroke-width="0.5" stroke-linecap="round" stroke-linejoin="round"/>
<path d="M45.709 32.3488C46.4677 30.9368 46.3362 29.3909 45.4152 28.896C44.4942 28.4012 43.1325 29.1447 42.3738 30.5567C41.6151 31.9687 41.7466 33.5146 42.6676 34.0095C43.5886 34.5043 44.9503 33.7608 45.709 32.3488Z" fill="white" stroke="white" stroke-width="0.5" stroke-linecap="round" stroke-linejoin="round"/>
<path d="M105.831 57.9668C106.59 56.5548 106.458 55.009 105.537 54.5141C104.616 54.0192 103.255 54.7627 102.496 56.1747C101.737 57.5868 101.869 59.1326 102.79 59.6275C103.711 60.1224 105.073 59.3789 105.831 57.9668Z" stroke="#989DA8" stroke-width="0.5" stroke-linecap="round" stroke-linejoin="round"/>
<path d="M82.2087 65.6539L101.122 57.9165" stroke="#989DA8" stroke-width="0.5" stroke-linecap="round" stroke-linejoin="round" stroke-dasharray="2.24 2.24"/>
</svg>
