<svg width="150" height="76" viewBox="0 0 150 76" fill="none" xmlns="http://www.w3.org/2000/svg">
<path d="M77.4036 10.1374L77.5734 19.6368C77.5734 20.1514 77.172 20.3212 76.6626 20.0382L68.6298 15.5972C68.3727 15.4494 68.1536 15.2435 67.9901 14.9961C67.8266 14.7486 67.7232 14.4663 67.6881 14.1718L67.5234 4.67244C67.5234 4.15784 67.9197 3.98803 68.4343 4.27105L76.4928 8.73771C76.742 8.88528 76.9538 9.08833 77.1118 9.33109C77.2698 9.57385 77.3696 9.84977 77.4036 10.1374Z" stroke="#F0F0F0" stroke-width="0.5" stroke-linecap="round" stroke-linejoin="round"/>
<path d="M53.911 49.0282L54.0757 58.5276C54.0757 59.0422 53.6743 59.212 53.1649 58.929L45.1064 54.4623C44.8485 54.3147 44.6292 54.1081 44.4664 53.8595C44.3036 53.6108 44.202 53.3272 44.1698 53.0318L44 43.5375C44 43.023 44.4014 42.8531 44.9108 43.1362L52.9693 47.6028C53.2265 47.7507 53.4455 47.9565 53.609 48.204C53.7725 48.4515 53.8759 48.7337 53.911 49.0282Z" stroke="#F0F0F0" stroke-width="0.5" stroke-linecap="round" stroke-linejoin="round" stroke-dasharray="2.24 2.24"/>
<path d="M105.911 25.0282L106.076 34.5276C106.076 35.0422 105.674 35.212 105.165 34.929L97.1064 30.4623C96.8485 30.3147 96.6292 30.1081 96.4664 29.8595C96.3036 29.6108 96.202 29.3272 96.1698 29.0318L96 19.5375C96 19.023 96.4014 18.8531 96.9108 19.1362L104.969 23.6028C105.226 23.7507 105.446 23.9565 105.609 24.204C105.773 24.4515 105.876 24.7337 105.911 25.0282Z" stroke="#F0F0F0" stroke-width="0.5" stroke-linecap="round" stroke-linejoin="round"/>
<path d="M66.5373 10.1443L49 1V45" stroke="#F0F0F0" stroke-width="0.5" stroke-linecap="round" stroke-linejoin="round" stroke-dasharray="2.24 2.24"/>
<path d="M55 54L70 62.6093V89" stroke="#F0F0F0" stroke-width="0.5" stroke-linecap="round" stroke-linejoin="round" stroke-dasharray="2.24 2.24"/>
<path d="M79 17L94.4583 24.4616" stroke="#F0F0F0" stroke-width="0.5" stroke-linecap="round" stroke-linejoin="round" stroke-dasharray="2.24 2.24"/>
<path d="M70.4036 31.1374L70.5734 40.6368C70.5734 41.1514 70.172 41.3212 69.6626 41.0382L61.6298 36.5972C61.3727 36.4494 61.1536 36.2435 60.9901 35.9961C60.8266 35.7486 60.7232 35.4663 60.6881 35.1718L60.5234 25.6724C60.5234 25.1578 60.9197 24.988 61.4343 25.2711L69.4928 29.7377C69.742 29.8853 69.9538 30.0883 70.1118 30.3311C70.2698 30.5739 70.3696 30.8498 70.4036 31.1374Z" stroke="#F0F0F0" stroke-width="0.5" stroke-linecap="round" stroke-linejoin="round" stroke-dasharray="2.24 2.24"/>
<path d="M91.911 43.0282L92.0757 52.5276C92.0757 53.0422 91.6743 53.212 91.1649 52.929L83.1064 48.4623C82.8485 48.3147 82.6292 48.1081 82.4664 47.8595C82.3036 47.6108 82.202 47.3272 82.1698 47.0318L82 37.5375C82 37.023 82.4014 36.8531 82.9108 37.1362L90.9693 41.6028C91.2265 41.7507 91.4455 41.9565 91.609 42.204C91.7725 42.4515 91.8759 42.7337 91.911 43.0282Z" stroke="#F0F0F0" stroke-width="0.5" stroke-linecap="round" stroke-linejoin="round" stroke-dasharray="2.24 2.24"/>
<path d="M71 37L81 42" stroke="#F0F0F0" stroke-width="0.5" stroke-linecap="round" stroke-linejoin="round" stroke-dasharray="2.24 2.24"/>
<path d="M50 26L60 31" stroke="#F0F0F0" stroke-width="0.5" stroke-linecap="round" stroke-linejoin="round" stroke-dasharray="2.24 2.24"/>
</svg>
