<svg width="150" height="74" viewBox="0 0 150 74" fill="none" xmlns="http://www.w3.org/2000/svg">
<g clip-path="url(#clip0_1_2)">
<path d="M72.6408 73.8592C73.245 70.3431 73.0416 66.7512 72.051 63.4432C71.0605 60.1352 69.3176 57.2272 66.9969 55.0104C64.6761 52.7936 61.859 51.3459 58.8276 50.8121C55.7961 50.2784 52.6568 50.6773 49.724 51.9691L1.09592 73.3132" stroke="#F0F0F0" stroke-width="0.5" stroke-miterlimit="10" stroke-linecap="round"/>
<path d="M68.3247 56.0579L168.888 5.7764" stroke="#F0F0F0" stroke-width="0.5"/>
<path d="M106.274 41.2047C108.029 37.9385 107.723 34.3618 105.59 33.2158C103.458 32.0698 100.306 33.7885 98.5511 37.0547C96.7962 40.3208 97.1025 43.8975 99.2352 45.0435C101.368 46.1895 104.52 44.4708 106.274 41.2047Z" fill="#3B94EC" stroke="#F0F0F0" stroke-width="0.5" stroke-miterlimit="10" stroke-linecap="round"/>
<path d="M36.0564 35.2057L42.3978 31.7301C43.4833 31.1369 44.3908 30.2535 45.0234 29.1743C45.656 28.0951 45.9899 26.8605 45.9896 25.6025V13.6822C45.989 13.1302 45.8485 12.5878 45.5819 12.1078C45.3152 11.6278 44.9315 11.2265 44.4681 10.9431C44.0047 10.6597 43.4773 10.5037 42.9374 10.4904C42.3975 10.4771 41.8634 10.607 41.3872 10.8673L34.5951 14.5895C33.426 15.2304 32.4488 16.1833 31.7675 17.3467C31.0861 18.51 30.726 19.8405 30.7256 21.1964V31.9441C30.7316 32.5814 30.8977 33.2064 31.2078 33.7593C31.5179 34.3122 31.9617 34.7744 32.4967 35.1017C33.0317 35.4291 33.64 35.6105 34.2633 35.6287C34.8865 35.6469 35.504 35.5013 36.0564 35.2057Z" stroke="#F0F0F0" stroke-width="0.5" stroke-linecap="round" stroke-linejoin="round" stroke-dasharray="2.24 2.24"/>
<path d="M39.7046 34.7322V56.2814" stroke="#F0F0F0" stroke-width="0.5" stroke-linecap="round" stroke-linejoin="round" stroke-dasharray="3 3"/>
<path d="M14.7351 48.795L19.2114 46.3125C19.9776 45.8888 20.6182 45.2578 21.0647 44.4869C21.5113 43.716 21.747 42.8342 21.7468 41.9356V33.4211C21.7463 33.0269 21.6472 32.6394 21.459 32.2966C21.2707 31.9537 20.9999 31.6671 20.6728 31.4646C20.3456 31.2622 19.9734 31.1508 19.5923 31.1413C19.2112 31.1318 18.8342 31.2245 18.498 31.4105L13.7036 34.0692C12.8784 34.527 12.1886 35.2076 11.7076 36.0386C11.2266 36.8696 10.9725 37.8199 10.9722 38.7884V46.4654C10.9764 46.9205 11.0936 47.367 11.3125 47.7619C11.5314 48.1568 11.8447 48.487 12.2224 48.7208C12.6 48.9546 13.0294 49.0842 13.4693 49.0972C13.9093 49.1102 14.3451 49.0062 14.7351 48.795Z" stroke="#F0F0F0" stroke-width="0.5" stroke-linecap="round" stroke-linejoin="round" stroke-dasharray="2.24 2.24"/>
<path d="M17.2573 49.0984V64.3624" stroke="#F0F0F0" stroke-width="0.5" stroke-linecap="round" stroke-linejoin="round" stroke-dasharray="3 3"/>
</g>
<defs>
<clipPath id="clip0_1_2">
<rect width="150" height="74" fill="white"/>
</clipPath>
</defs>
</svg>
