<svg width="150" height="75" viewBox="0 0 150 75" fill="none" xmlns="http://www.w3.org/2000/svg">
<path d="M103.234 53.7114L94.4613 49.1292C92.9624 48.3447 91.7096 47.178 90.8363 45.7535C89.9631 44.3289 89.5021 42.6998 89.5024 41.0397V25.303C89.5069 24.5762 89.7039 23.8629 90.0743 23.2324C90.4446 22.6019 90.9758 22.0756 91.6161 21.7047C92.2564 21.3338 92.9842 21.1308 93.7286 21.1156C94.473 21.1003 95.2089 21.2732 95.8646 21.6176L105.254 26.5314C106.87 27.3771 108.221 28.6349 109.163 30.1708C110.105 31.7068 110.603 33.4635 110.603 35.2536V49.4424C110.588 50.2806 110.354 51.1011 109.922 51.826C109.491 52.5509 108.877 53.1561 108.139 53.5839C107.4 54.0117 106.562 54.2481 105.703 54.2704C104.845 54.2927 103.994 54.1003 103.234 53.7114Z" stroke="#F0F0F0" stroke-width="0.5" stroke-linecap="round" stroke-linejoin="round" stroke-dasharray="2.24 2.24"/>
<path d="M83.4741 50.2434V10.3037" stroke="#F0F0F0" stroke-width="0.5" stroke-miterlimit="10" stroke-linecap="round"/>
<path d="M0.5 75L42.2112 31.4856C43.787 30.8356 45.4891 30.559 47.1871 30.6769C48.8851 30.7948 50.5337 31.3042 52.0066 32.166L122 75" stroke="#F0F0F0" stroke-width="0.5" stroke-miterlimit="10" stroke-linecap="round"/>
<path d="M131.978 7.252C133.09 6.65798 133.253 4.79379 132.343 3.08822C131.432 1.38264 129.792 0.481549 128.679 1.07557C127.567 1.66958 127.404 3.53376 128.315 5.23934C129.226 6.94491 130.866 7.84601 131.978 7.252Z" fill="white" stroke="#F0F0F0" stroke-width="0.5" stroke-linecap="round" stroke-linejoin="round"/>
<path d="M86 8.31196L124.376 30.7635C125.024 31.0071 125.71 31.0635 126.379 30.9282C127.049 30.7928 127.682 30.4695 128.229 29.9843C128.776 29.4991 129.222 28.8654 129.529 28.1344C129.837 27.4033 129.998 26.5952 130 25.7751V7" stroke="#F0F0F0" stroke-width="0.5" stroke-miterlimit="10" stroke-linecap="round"/>
<path d="M84.8927 9.93327C86.0049 9.33925 86.168 7.47506 85.2571 5.76949C84.3462 4.06391 82.7061 3.16282 81.5939 3.75684C80.4817 4.35085 80.3185 6.21504 81.2295 7.92061C82.1404 9.62619 83.7805 10.5273 84.8927 9.93327Z" fill="white" stroke="#F0F0F0" stroke-width="0.5" stroke-linecap="round" stroke-linejoin="round"/>
</svg>
