<svg width="63" height="26" viewBox="0 0 63 26" fill="none" xmlns="http://www.w3.org/2000/svg">
<path d="M8.06861 15.869C8.10966 16.1619 7.92914 16.2921 7.65837 16.1619L5.41857 15.039C5.26394 14.9748 5.09798 14.9417 4.93037 14.9417C4.76276 14.9417 4.59681 14.9748 4.44223 15.039L2.19419 16.1375C1.92343 16.2677 1.7429 16.1375 1.78396 15.8364L2.16954 13.3953C2.18501 13.2284 2.16605 13.0601 2.11385 12.9006C2.06165 12.7412 1.97734 12.5939 1.86596 12.4677L0.118387 10.6776C-0.0867284 10.466 -0.0210827 10.2545 0.282503 10.2056L2.74389 9.7988C2.91275 9.76762 3.07307 9.7015 3.21444 9.6048C3.3558 9.50804 3.47501 9.38282 3.56436 9.23736L4.72934 7.0404C4.86887 6.77185 5.09858 6.77185 5.23804 7.0404L6.3785 9.24549C6.46649 9.39369 6.58504 9.52176 6.72647 9.62131C6.86783 9.72087 7.02887 9.78965 7.19897 9.82321L9.6603 10.2463C9.96388 10.2951 10.0295 10.5067 9.81618 10.7183L8.05219 12.484C7.93281 12.6053 7.83932 12.7493 7.77728 12.9072C7.71525 13.0652 7.68598 13.234 7.6912 13.4035L8.06861 15.869Z" fill="url(#paint0_radial_87_148)"/>
<path style="mix-blend-mode:multiply" opacity="0.5" d="M4.96721 6.95904C5.0082 6.95904 5.06567 7.00787 5.10667 7.09738L6.25531 9.30248C6.35023 9.46292 6.4769 9.60262 6.6278 9.71311C6.77871 9.82365 6.95064 9.90259 7.13318 9.9453L9.59457 10.3603C9.62882 10.3628 9.66206 10.3728 9.69192 10.3897C9.72172 10.4066 9.74731 10.4299 9.76687 10.4579C9.76687 10.4579 9.76687 10.5637 9.68481 10.637L7.92082 12.4027C7.79534 12.5408 7.69995 12.7032 7.64064 12.8796C7.58133 13.056 7.55941 13.2427 7.57624 13.4279L7.93724 15.869C7.95726 15.927 7.95726 15.99 7.93724 16.048C7.92562 16.0532 7.91306 16.0558 7.90032 16.0558C7.88759 16.0558 7.87503 16.0532 7.86341 16.048C7.80659 16.0598 7.74794 16.0598 7.69112 16.048L5.47591 14.9332C5.30361 14.8549 5.11574 14.8159 4.92621 14.8193C4.74029 14.8173 4.55597 14.8533 4.38468 14.9251L2.13664 16.048C2.09618 16.0704 2.05145 16.0843 2.00535 16.0887C1.9935 16.0861 1.98236 16.0811 1.97247 16.0742C1.96257 16.0671 1.95428 16.0582 1.94794 16.048C1.92424 15.9906 1.92424 15.9263 1.94794 15.869L2.32535 13.4279C2.34656 13.2425 2.32825 13.0547 2.27173 12.8767C2.21521 12.6987 2.12165 12.5344 1.99717 12.3945L0.208544 10.5963C0.142898 10.523 0.110133 10.4579 0.126545 10.4172C0.150066 10.3941 0.178446 10.3763 0.209551 10.3651C0.240715 10.3539 0.273953 10.3495 0.307013 10.3521L2.7684 9.95344C2.95177 9.91548 3.12519 9.84022 3.2777 9.73235C3.4302 9.62448 3.55853 9.48644 3.65445 9.32689L4.8195 7.09738C4.86056 7.00787 4.91797 6.95904 4.96721 6.95904ZM4.96721 6.83698C4.90968 6.84333 4.85517 6.86584 4.81008 6.90184C4.76499 6.9379 4.73128 6.98595 4.71285 7.04042L3.58887 9.23738C3.49952 9.38284 3.38031 9.50806 3.23895 9.60482C3.09758 9.70152 2.93726 9.76764 2.7684 9.79882L0.307013 10.2056C0.00342758 10.2545 -0.0621588 10.4661 0.142898 10.6776L1.89047 12.4596C2.00186 12.5857 2.08616 12.733 2.13836 12.8925C2.19056 13.052 2.20952 13.2202 2.19405 13.3872L1.80847 15.8283C1.80847 16.048 1.86588 16.1782 2.03 16.1782C2.09553 16.1745 2.15969 16.158 2.2187 16.1293L4.40927 15.039C4.56118 14.9707 4.72666 14.9374 4.89338 14.9413C5.06271 14.9375 5.2308 14.9709 5.38561 15.039L7.69112 16.1619C7.74948 16.1921 7.814 16.2088 7.87982 16.2107C8.04394 16.2107 8.13418 16.0806 8.10135 15.869L7.74036 13.4279C7.72744 13.2624 7.74758 13.0959 7.79966 12.9382C7.8518 12.7804 7.93481 12.6343 8.04394 12.5085L9.80786 10.7427C10.0212 10.5312 9.95557 10.3196 9.65198 10.2708L7.19065 9.84765C7.02055 9.81409 6.85952 9.7453 6.71815 9.64575C6.57679 9.54619 6.45817 9.41813 6.37019 9.26993L5.22973 7.04042C5.15591 6.91021 5.06567 6.83698 4.97538 6.83698H4.96721Z" fill="url(#paint1_radial_87_148)"/>
<path d="M20.999 15.869C21.0482 16.1619 20.8595 16.2921 20.5888 16.1619L18.3572 15.039C18.2012 14.9745 18.0339 14.9413 17.8649 14.9413C17.6959 14.9413 17.5286 14.9745 17.3726 15.039L15.1328 16.1375C14.862 16.2677 14.6733 16.1375 14.7225 15.8364L15.1 13.3953C15.117 13.2289 15.0996 13.0608 15.0488 12.9013C14.998 12.7418 14.9149 12.5943 14.8046 12.4677L13.057 10.6776C12.8437 10.466 12.9176 10.2545 13.2129 10.2056L15.6743 9.7988C15.8432 9.76762 16.0035 9.7015 16.1448 9.6048C16.2862 9.50804 16.4054 9.38282 16.4947 9.23736L17.6597 7.0404C17.8075 6.77185 18.029 6.77185 18.1685 7.0404L19.3171 9.24549C19.4051 9.39369 19.5237 9.52176 19.665 9.62131C19.8065 9.72087 19.9674 9.78965 20.1375 9.82321L22.5989 10.2463C22.8943 10.2951 22.9681 10.5067 22.7548 10.7183L20.9908 12.484C20.8784 12.6078 20.7934 12.7536 20.7411 12.9119C20.6888 13.0703 20.6705 13.2377 20.6872 13.4035L20.999 15.869Z" fill="url(#paint2_radial_87_148)"/>
<path style="mix-blend-mode:multiply" opacity="0.5" d="M17.8976 6.95904C17.9469 6.95904 17.9961 7.00787 18.0453 7.09738L19.1776 9.30248C19.2724 9.46292 19.3991 9.60262 19.55 9.71311C19.7009 9.82365 19.8729 9.90259 20.0554 9.9453L22.5168 10.3603C22.6153 10.3603 22.6809 10.4172 22.6891 10.4579C22.6973 10.4986 22.6891 10.5637 22.607 10.637L20.8431 12.4027C20.7186 12.5412 20.6244 12.7039 20.5666 12.8803C20.5087 13.0568 20.4883 13.2432 20.5067 13.4279L20.8677 15.869C20.8726 15.9006 20.8707 15.9328 20.8623 15.9637C20.8538 15.9945 20.8389 16.0233 20.8185 16.048C20.8185 16.048 20.8185 16.048 20.7528 16.048C20.7039 16.0447 20.6563 16.0308 20.6134 16.0073L18.3735 14.8926C18.2012 14.8142 18.0133 14.7752 17.8238 14.7787C17.6405 14.7766 17.4589 14.8126 17.2905 14.8844L15.0753 16.048C15.0323 16.0715 14.9847 16.0854 14.9358 16.0887C14.8866 16.0887 14.8702 16.0887 14.8702 16.0887C14.8564 16.0608 14.8492 16.0302 14.8492 15.9992C14.8492 15.9681 14.8564 15.9375 14.8702 15.9097L15.2476 13.4686C15.2652 13.2827 15.2444 13.0952 15.1866 12.9175C15.1287 12.7399 15.0351 12.5758 14.9112 12.4352L13.139 10.5963C13.1135 10.5737 13.0931 10.5461 13.079 10.5153C13.0648 10.4845 13.0574 10.4511 13.057 10.4172C13.0765 10.3892 13.1021 10.3659 13.1319 10.349C13.1617 10.3321 13.195 10.3221 13.2293 10.3196L15.6906 9.92089C15.8729 9.88281 16.0451 9.80743 16.1963 9.69956C16.3475 9.59163 16.4743 9.45365 16.5685 9.29434L17.7582 7.09738C17.7582 7.00787 17.8566 6.95904 17.8976 6.95904ZM17.8976 6.83698C17.8074 6.83698 17.7172 6.90208 17.6433 7.04042L16.4782 9.23738C16.3889 9.38284 16.2697 9.50806 16.1284 9.60482C15.987 9.70152 15.8266 9.76764 15.6578 9.79882L13.1964 10.2056C12.9011 10.2545 12.8272 10.4661 13.0405 10.6776L14.7881 12.4596C14.897 12.5868 14.9785 12.7346 15.028 12.8941C15.0773 13.0536 15.0934 13.2214 15.0753 13.3872L14.6979 15.8283C14.6979 16.048 14.7553 16.1782 14.9112 16.1782C14.9795 16.1757 15.0466 16.159 15.1081 16.1293L17.3479 15.0309C17.5003 14.9642 17.6654 14.9308 17.832 14.9332C18.0039 14.9303 18.1745 14.9636 18.3325 15.0309L20.5641 16.1538C20.6256 16.1835 20.6927 16.2001 20.761 16.2026C20.9169 16.2026 21.0072 16.0724 20.9744 15.8609L20.6215 13.4198C20.6048 13.254 20.6231 13.0866 20.6754 12.9282C20.7277 12.7699 20.8127 12.6241 20.9251 12.5003L22.6891 10.7346C22.9024 10.523 22.8286 10.3114 22.5332 10.2626L20.0718 9.83951C19.9017 9.80595 19.7408 9.73716 19.5993 9.63761C19.458 9.53806 19.3394 9.40999 19.2514 9.26179L18.1027 7.05669C18.0827 7.00323 18.0485 6.95613 18.0037 6.92037C17.959 6.88455 17.9053 6.86139 17.8484 6.85325L17.8976 6.83698Z" fill="url(#paint3_radial_87_148)"/>
<path d="M33.9458 15.869C33.9458 16.1619 33.8063 16.2921 33.5356 16.1619L31.2958 15.039C31.1411 14.9748 30.9752 14.9417 30.8076 14.9417C30.64 14.9417 30.474 14.9748 30.3194 15.039L28.0714 16.1375C27.8006 16.2677 27.6201 16.1375 27.6612 15.8364L28.0467 13.3953C28.0622 13.2284 28.0432 13.0601 27.991 12.9006C27.9388 12.7412 27.8545 12.5939 27.7432 12.4677L25.9874 10.6776C25.7823 10.466 25.8479 10.2545 26.1515 10.2056L28.6129 9.7988C28.7817 9.76762 28.942 9.7015 29.0834 9.6048C29.2248 9.50804 29.344 9.38282 29.4333 9.23736L30.5984 7.0404C30.7378 6.77185 30.9676 6.77185 31.1071 7.0404L32.2475 9.24549C32.3363 9.39304 32.4551 9.52057 32.5964 9.62007C32.7376 9.7195 32.8982 9.7887 33.0679 9.82321L35.5293 10.2463C35.8247 10.2951 35.8903 10.5067 35.677 10.7183L33.9212 12.484C33.8095 12.6085 33.7242 12.7542 33.6707 12.9122C33.617 13.0702 33.5962 13.2373 33.6094 13.4035L33.9458 15.869Z" fill="url(#paint4_radial_87_148)"/>
<path style="mix-blend-mode:multiply" opacity="0.5" d="M30.8363 6.95904C30.8363 6.95904 30.9348 7.00787 30.9758 7.09738L32.1244 9.30248C32.2193 9.46292 32.346 9.60262 32.4969 9.71311C32.6478 9.82365 32.8197 9.90259 33.0023 9.9453L35.4637 10.3603C35.4979 10.3628 35.5312 10.3728 35.561 10.3897C35.5908 10.4066 35.6165 10.4299 35.6359 10.4579C35.6359 10.4579 35.6359 10.5637 35.5539 10.637L33.79 12.4027C33.6644 12.5408 33.569 12.7032 33.5097 12.8796C33.4505 13.056 33.4286 13.2427 33.4453 13.4279L33.8064 15.869C33.8301 15.9263 33.8301 15.9906 33.8064 16.048C33.7948 16.0532 33.7821 16.0558 33.7694 16.0558C33.7567 16.0558 33.7441 16.0532 33.7325 16.048C33.6864 16.0436 33.6417 16.0297 33.6013 16.0073L31.3614 14.8926C31.1891 14.8142 31.0012 14.7752 30.8117 14.7787C30.6258 14.7766 30.4415 14.8126 30.2702 14.8844L28.0057 16.048C27.9653 16.0704 27.9206 16.0843 27.8744 16.0887C27.8628 16.0938 27.8503 16.0965 27.8375 16.0965C27.8248 16.0965 27.8122 16.0938 27.8006 16.0887C27.7806 16.0307 27.7806 15.9677 27.8006 15.9097L28.178 13.4686C28.1992 13.2831 28.181 13.0954 28.1245 12.9174C28.0679 12.7394 27.9744 12.5751 27.8498 12.4352L26.0776 10.5963C26.012 10.523 25.9792 10.4579 25.9956 10.4172C26.0151 10.3892 26.0408 10.3659 26.0706 10.349C26.1004 10.3321 26.1337 10.3221 26.1679 10.3196L28.6293 9.92089C28.8126 9.88293 28.9861 9.80767 29.1386 9.6998C29.2911 9.59193 29.4194 9.45389 29.5154 9.29434L30.664 7.09738C30.7132 7.00787 30.7625 6.95904 30.8117 6.95904M30.8117 6.83698C30.7542 6.84333 30.6996 6.86584 30.6546 6.90184C30.6095 6.9379 30.5758 6.98595 30.5573 7.04042L29.3923 9.23738C29.303 9.38284 29.1837 9.50806 29.0424 9.60482C28.901 9.70152 28.7407 9.76764 28.5718 9.79882L26.1104 10.2056C25.8069 10.2545 25.7413 10.4661 25.9464 10.6776L27.694 12.4596C27.8053 12.5857 27.8897 12.733 27.9418 12.8925C27.994 13.052 28.013 13.2202 27.9975 13.3872L27.6119 15.8283C27.6119 16.048 27.6693 16.1782 27.8334 16.1782C27.899 16.1745 27.9631 16.158 28.0221 16.1293L30.2702 15.0309C30.4221 14.9626 30.5876 14.9292 30.7542 14.9332C30.9236 14.9294 31.0917 14.9627 31.2465 15.0309L33.4864 16.1538C33.5453 16.1824 33.6095 16.199 33.6751 16.2026C33.8391 16.2026 33.9294 16.0724 33.8966 15.8609L33.5356 13.4198C33.5224 13.2536 33.5432 13.0865 33.5968 12.9285C33.6504 12.7705 33.7356 12.6248 33.8474 12.5003L35.6031 10.7346C35.8165 10.523 35.7508 10.3114 35.4555 10.2626L32.9941 9.83951C32.8244 9.805 32.6638 9.73586 32.5225 9.63636C32.3812 9.53687 32.2624 9.40934 32.1736 9.26179L31.0906 7.04042C31.0168 6.91021 30.9265 6.83698 30.8363 6.83698H30.8117Z" fill="url(#paint5_radial_87_148)"/>
<path d="M46.8681 15.869C46.9173 16.1619 46.7286 16.2921 46.4578 16.1619L44.2262 15.039C44.0702 14.9745 43.9029 14.9413 43.7339 14.9413C43.5649 14.9413 43.3976 14.9745 43.2416 15.039L41.0018 16.1375C40.7311 16.2677 40.5424 16.1375 40.5916 15.8364L40.969 13.3953C40.986 13.2289 40.9686 13.0608 40.9178 12.9013C40.867 12.7418 40.7839 12.5943 40.6736 12.4677L38.926 10.6776C38.7127 10.466 38.7865 10.2545 39.082 10.2056L41.5433 9.7988C41.7125 9.76863 41.8732 9.70293 42.0147 9.60605C42.1563 9.50923 42.2752 9.38354 42.3638 9.23736L43.5288 7.0404C43.6765 6.77185 43.898 6.77185 44.0375 7.0404L45.1861 9.24549C45.2741 9.39369 45.3927 9.52176 45.5341 9.62131C45.6755 9.72087 45.8365 9.78965 46.0066 9.82321L48.4679 10.2463C48.7633 10.2951 48.8372 10.5067 48.6238 10.7183L46.8598 12.484C46.7475 12.6078 46.6624 12.7536 46.6102 12.9119C46.5578 13.0703 46.5395 13.2377 46.5563 13.4035L46.8681 15.869Z" fill="url(#paint6_radial_87_148)"/>
<path style="mix-blend-mode:multiply" opacity="0.5" d="M43.7913 6.95904C43.8405 6.95904 43.8979 7.00787 43.939 7.09738L45.0876 9.30248C45.1825 9.46292 45.3092 9.60262 45.4601 9.71311C45.611 9.82365 45.7829 9.90259 45.9655 9.9453L48.4269 10.3603C48.5253 10.3603 48.5909 10.4172 48.5992 10.4579C48.6073 10.4986 48.5992 10.5637 48.5171 10.637L46.7531 12.4027C46.6286 12.5412 46.5345 12.7039 46.4766 12.8803C46.4187 13.0568 46.3983 13.2432 46.4167 13.4279L46.7777 15.869C46.7899 15.8973 46.7962 15.9277 46.7962 15.9585C46.7962 15.9893 46.7899 16.0197 46.7777 16.048C46.7777 16.048 46.7777 16.048 46.7121 16.048C46.6632 16.0447 46.6155 16.0308 46.5726 16.0073L44.2836 14.9332C44.1109 14.861 43.9253 14.8237 43.7379 14.8237C43.5505 14.8237 43.365 14.861 43.1923 14.9332L40.9443 16.048C40.9013 16.0715 40.8538 16.0854 40.8048 16.0887C40.7556 16.0887 40.7392 16.0887 40.7392 16.0887C40.7254 16.0608 40.7183 16.0302 40.7183 15.9992C40.7183 15.9681 40.7254 15.9375 40.7392 15.9097L41.1166 13.4686C41.1358 13.2833 41.1166 13.096 41.0601 12.9183C41.0037 12.7406 40.9112 12.5762 40.7884 12.4352L39.0162 10.5963C38.9506 10.523 38.9178 10.4579 38.9342 10.4172C38.9506 10.3765 39.008 10.3359 39.1065 10.3196L41.5678 9.92089C41.7508 9.88198 41.9239 9.80636 42.0763 9.69861C42.2287 9.59086 42.3572 9.45323 42.4539 9.29434L43.6272 7.09738C43.6272 7.00787 43.7256 6.95904 43.7667 6.95904M43.7667 6.83698C43.6764 6.83698 43.5861 6.90208 43.5123 7.04042L42.3473 9.23738C42.2588 9.38356 42.1398 9.50925 41.9982 9.60613C41.8568 9.70295 41.696 9.76865 41.5268 9.79882L39.0654 10.2056C38.7701 10.2545 38.6963 10.4661 38.9095 10.6776L40.6571 12.4596C40.7674 12.5861 40.8506 12.7337 40.9013 12.8932C40.9521 13.0527 40.9695 13.2208 40.9525 13.3872L40.5751 15.8283C40.5751 16.048 40.6325 16.1782 40.7884 16.1782C40.8567 16.1757 40.9238 16.159 40.9853 16.1293L43.2252 15.0309C43.3775 14.9642 43.5427 14.9308 43.7092 14.9332C43.8811 14.9303 44.0517 14.9636 44.2097 15.0309L46.4414 16.1538C46.5029 16.1835 46.5699 16.2001 46.6382 16.2026C46.7941 16.2026 46.8844 16.0724 46.8516 15.8609L46.4988 13.4198C46.482 13.254 46.5004 13.0866 46.5526 12.9282C46.6049 12.7699 46.69 12.6241 46.8024 12.5003L48.5663 10.7346C48.7796 10.523 48.7058 10.3114 48.4105 10.2626L45.9491 9.83951C45.779 9.80595 45.618 9.73716 45.4766 9.63761C45.3352 9.53806 45.2166 9.40999 45.1286 9.26179L43.98 7.05669C43.9143 6.92649 43.8241 6.85325 43.7256 6.85325L43.7667 6.83698Z" fill="url(#paint7_radial_87_148)"/>
<path d="M59.8065 15.869C59.8065 16.1619 59.6672 16.2921 59.3965 16.1619L57.1563 15.039C57.0017 14.9748 56.8358 14.9417 56.6681 14.9417C56.501 14.9417 56.3345 14.9748 56.1799 15.039L53.9321 16.1375C53.6613 16.2677 53.4812 16.1375 53.5221 15.8364L53.9078 13.3953C53.9285 13.2293 53.9155 13.0608 53.8687 12.8999C53.8224 12.7391 53.7436 12.5893 53.637 12.4596L51.8566 10.6776C51.651 10.466 51.7168 10.2545 52.0207 10.2056L54.4819 9.7988C54.6507 9.76762 54.8113 9.7015 54.9523 9.6048C55.0939 9.50804 55.213 9.38282 55.3025 9.23736L56.4673 7.0404C56.6071 6.77185 56.8364 6.77185 56.9762 7.0404L58.1167 9.24549C58.205 9.39304 58.3241 9.52057 58.4651 9.62007C58.6067 9.7195 58.7673 9.7887 58.9367 9.82321L61.3985 10.2463C61.6935 10.2951 61.7593 10.5067 61.546 10.7183L59.7905 12.484C59.6785 12.6085 59.5932 12.7542 59.5399 12.9122C59.4859 13.0702 59.4652 13.2373 59.4782 13.4035L59.8065 15.869Z" fill="url(#paint8_radial_87_148)"/>
<path style="mix-blend-mode:multiply" opacity="0.5" d="M56.7054 6.95904C56.7462 6.95904 56.8037 7.00787 56.8446 7.09738L57.9934 9.30248C58.0882 9.46292 58.215 9.60262 58.3661 9.71311C58.5166 9.82365 58.6884 9.90259 58.8715 9.9453L61.3326 10.3603C61.367 10.3628 61.4002 10.3728 61.4298 10.3897C61.46 10.4066 61.4855 10.4299 61.505 10.4579C61.505 10.4579 61.505 10.5637 61.4227 10.637L59.6589 12.4027C59.5333 12.5408 59.4379 12.7032 59.3786 12.8796C59.3194 13.056 59.2975 13.2427 59.314 13.4279L59.6755 15.869C59.6992 15.9263 59.6992 15.9906 59.6755 16.048C59.6648 16.0525 59.6535 16.0548 59.6423 16.0548C59.631 16.0548 59.6198 16.0525 59.6097 16.048C59.5605 16.0447 59.5131 16.0308 59.4705 16.0073L57.2303 14.8926C57.0579 14.8142 56.8701 14.7752 56.6805 14.7787C56.4944 14.7766 56.3102 14.8126 56.139 14.8844L53.8828 16.048C53.839 16.0695 53.7922 16.0833 53.7436 16.0887C53.7234 16.0951 53.7021 16.0947 53.6825 16.0872C53.6636 16.0798 53.647 16.066 53.6369 16.048C53.6168 15.99 53.6168 15.927 53.6369 15.869L54.0226 13.4279C54.0398 13.242 54.0191 13.0545 53.9616 12.8769C53.9035 12.6992 53.8099 12.5351 53.6861 12.3945L51.9466 10.5963C51.8808 10.523 51.8482 10.4579 51.8648 10.4172C51.8838 10.3892 51.9099 10.3659 51.9395 10.349C51.9691 10.3321 52.0029 10.3221 52.0366 10.3196L54.4984 9.92089C54.6815 9.88293 54.8551 9.80767 55.0073 9.6998C55.1602 9.59193 55.2882 9.45389 55.3841 9.29434L56.5578 7.09738C56.607 7.00787 56.6562 6.95904 56.7054 6.95904ZM56.7054 6.83698C56.6147 6.83698 56.5247 6.90208 56.4506 7.04042L55.2775 9.23738C55.1886 9.38284 55.0689 9.50806 54.9279 9.60482C54.7863 9.70152 54.6258 9.76764 54.4569 9.79882L51.9958 10.2056C51.6924 10.2545 51.6267 10.4661 51.8316 10.6776L53.6369 12.4596C53.7483 12.5857 53.8324 12.733 53.8846 12.8925C53.9367 13.052 53.9557 13.2202 53.9403 13.3872L53.5546 15.8283C53.5546 16.048 53.612 16.1782 53.7762 16.1782C53.8419 16.1755 53.9065 16.1589 53.9652 16.1293L56.213 15.0309C56.3653 14.9634 56.5306 14.9301 56.6971 14.9332C56.8665 14.9294 57.0342 14.9627 57.1894 15.0309L59.3798 16.1619C59.4414 16.1916 59.5084 16.2082 59.5771 16.2107C59.7329 16.2107 59.823 16.0806 59.7904 15.869L59.429 13.4279C59.416 13.2617 59.4367 13.0946 59.4906 12.9366C59.5439 12.7786 59.6292 12.633 59.7406 12.5085L61.4967 10.7427C61.71 10.5312 61.6443 10.3196 61.3492 10.2708L58.8875 9.84765C58.718 9.81314 58.5575 9.74399 58.4159 9.6445C58.2748 9.54501 58.1558 9.41747 58.0675 9.26993L56.9595 7.04042C56.8855 6.91021 56.7954 6.83698 56.7054 6.83698Z" fill="url(#paint9_radial_87_148)"/>
<mask id="mask0_87_148" style="mask-type:alpha" maskUnits="userSpaceOnUse" x="57" y="7" width="6" height="10">
<path d="M62.1514 7.49603H57.4116V17H62.1514V7.49603Z" fill="white"/>
</mask>
<g mask="url(#mask0_87_148)">
<path d="M57.1966 14.9592L57.196 14.9594L59.4356 16.0819C59.5588 16.141 59.6198 16.1258 59.6489 16.1034C59.6832 16.077 59.717 16.0095 59.7176 15.8748L59.3906 13.4153L59.39 13.4106C59.3757 13.2323 59.3983 13.053 59.4557 12.8835C59.5132 12.714 59.6044 12.5579 59.7241 12.4244L59.7271 12.421L61.4832 10.6554C61.5798 10.56 61.5904 10.487 61.578 10.4479C61.5661 10.4092 61.517 10.3562 61.3837 10.3343L61.3831 10.3342L58.9219 9.91109L58.9195 9.91062C58.7376 9.87373 58.5658 9.7996 58.4142 9.69304C58.2631 9.58648 58.1357 9.44974 58.0403 9.29156L58.0373 9.28663L56.8974 7.08159L57.1966 14.9592ZM57.1966 14.9592L57.1907 14.9567L57.1966 14.9592ZM57.1966 14.9592L57.1907 14.9567L57.1966 14.9592ZM57.1907 14.9567C57.0254 14.888 56.8476 14.8526 56.6681 14.8526C56.4892 14.8526 56.3115 14.888 56.1462 14.9567M57.1907 14.9567H56.1462H57.1907ZM56.1462 14.9567L56.1414 14.9589L56.1462 14.9567ZM56.1462 14.9567L56.1414 14.9589L56.1462 14.9567ZM56.1414 14.9589L53.8935 16.0572C53.7721 16.1156 53.698 16.1027 53.6625 16.0767C53.6269 16.0507 53.5914 15.9845 53.6098 15.8495L53.9955 13.4093M56.1414 14.9589L53.9955 13.4093L56.1414 14.9589ZM53.9955 13.4093V13.4066V13.4093ZM53.9955 13.4093V13.4066V13.4093ZM53.9955 13.4066C54.0186 13.2285 54.0043 13.0477 53.954 12.8751C53.9042 12.7026 53.8195 12.542 53.7051 12.403L53.7028 12.3996M53.9955 13.4066L53.7028 12.3996L53.9955 13.4066ZM53.7028 12.3996L53.6998 12.3966L53.7028 12.3996ZM53.7028 12.3996L53.6998 12.3966L53.7028 12.3996ZM53.6998 12.3966L51.9194 10.6151C51.8282 10.5204 51.8187 10.4485 51.8317 10.4091C51.8454 10.3694 51.8969 10.3158 52.0344 10.2937L52.035 10.2936M53.6998 12.3966L52.035 10.2936L53.6998 12.3966ZM52.035 10.2936L54.4961 9.88674L52.035 10.2936ZM52.035 10.2936L54.4961 9.88674L52.035 10.2936ZM54.4961 9.88674L54.4979 9.8865L54.4961 9.88674ZM54.4961 9.88674L54.4979 9.8865L54.4961 9.88674ZM54.4979 9.8865C54.6792 9.85306 54.851 9.7822 55.0027 9.67843C55.1543 9.57465 55.2823 9.44029 55.3783 9.28413M54.4979 9.8865L55.3783 9.28413L54.4979 9.8865ZM55.3783 9.28413L55.3807 9.2792L55.3783 9.28413ZM55.3783 9.28413L55.3807 9.2792L55.3783 9.28413ZM55.3807 9.2792L56.5461 7.08224V7.08159M55.3807 9.2792L56.5461 7.08159L55.3807 9.2792ZM56.5461 7.08159C56.6083 6.96166 56.6764 6.92816 56.7214 6.92816L56.5461 7.08159ZM56.5461 7.08159L56.7214 6.92816L56.5461 7.08159ZM56.7214 6.92816C56.7665 6.92816 56.8346 6.96184 56.8974 7.08159L56.7214 6.92816Z" fill="white"/>
<path d="M57.1966 14.9592L57.196 14.9594L59.4356 16.0819C59.5588 16.141 59.6198 16.1258 59.6489 16.1035C59.6832 16.077 59.717 16.0095 59.7176 15.8748L59.3906 13.4153L59.39 13.4106C59.3757 13.2323 59.3983 13.053 59.4557 12.8835C59.5132 12.714 59.6044 12.5579 59.7241 12.4244L59.7271 12.421L61.4832 10.6554C61.5798 10.56 61.5904 10.487 61.578 10.4479C61.5661 10.4092 61.517 10.3562 61.3837 10.3343L61.3831 10.3342L58.9219 9.91109L58.9195 9.91062C58.7376 9.87373 58.5658 9.7996 58.4142 9.69304C58.2631 9.58648 58.1357 9.44974 58.0403 9.29156L58.0373 9.28663L56.8974 7.08159M57.1966 14.9592L56.8974 7.08159M57.1966 14.9592L57.1907 14.9567M56.8974 7.08159C56.8346 6.96184 56.7665 6.92816 56.7214 6.92816M56.8974 7.08159L56.7214 6.92816M57.1907 14.9567C57.0254 14.888 56.8476 14.8526 56.6681 14.8526C56.4892 14.8526 56.3115 14.888 56.1462 14.9567M57.1907 14.9567H56.1462M56.1462 14.9567L56.1414 14.9589M56.1414 14.9589L53.8935 16.0572C53.7721 16.1156 53.698 16.1027 53.6625 16.0767C53.6269 16.0507 53.5914 15.9845 53.6098 15.8495L53.9955 13.4093M56.1414 14.9589L53.9955 13.4093M53.9955 13.4093V13.4066M53.9955 13.4066C54.0186 13.2285 54.0043 13.0477 53.954 12.8751C53.9042 12.7026 53.8195 12.542 53.7051 12.403L53.7028 12.3996M53.9955 13.4066L53.7028 12.3996M53.7028 12.3996L53.6998 12.3966M53.6998 12.3966L51.9194 10.6151C51.8282 10.5204 51.8187 10.4485 51.8317 10.4091C51.8454 10.3694 51.8969 10.3158 52.0344 10.2937L52.035 10.2936M53.6998 12.3966L52.035 10.2936M52.035 10.2936L54.4961 9.88674L54.4979 9.8865M54.4979 9.8865C54.6792 9.85306 54.851 9.7822 55.0027 9.67843C55.1543 9.57465 55.2823 9.44029 55.3783 9.28413M54.4979 9.8865L55.3783 9.28413M55.3783 9.28413L55.3807 9.2792M55.3807 9.2792L56.5461 7.08224V7.08159M55.3807 9.2792L56.5461 7.08159M56.5461 7.08159C56.6083 6.96166 56.6764 6.92816 56.7214 6.92816M56.5461 7.08159L56.7214 6.92816" stroke="#676767" stroke-width="0.3"/>
</g>
<defs>
<radialGradient id="paint0_radial_87_148" cx="0" cy="0" r="1" gradientUnits="userSpaceOnUse" gradientTransform="translate(1.67725 16.3246) scale(10.3541 10.2688)">
<stop offset="0.35" stop-color="#FFC200"/>
<stop offset="0.51" stop-color="#FFBD07"/>
<stop offset="0.72" stop-color="#FFAF19"/>
<stop offset="0.98" stop-color="#FF9737"/>
<stop offset="1" stop-color="#FF953A"/>
</radialGradient>
<radialGradient id="paint1_radial_87_148" cx="0" cy="0" r="1" gradientUnits="userSpaceOnUse" gradientTransform="translate(0.889537 18.8715) scale(14.9733 14.8499)">
<stop offset="0.35" stop-color="#FFC200"/>
<stop offset="0.51" stop-color="#FFBD07"/>
<stop offset="0.72" stop-color="#FFAF19"/>
<stop offset="0.98" stop-color="#FF9737"/>
<stop offset="1" stop-color="#FF953A"/>
</radialGradient>
<radialGradient id="paint2_radial_87_148" cx="0" cy="0" r="1" gradientUnits="userSpaceOnUse" gradientTransform="translate(14.6159 16.3246) scale(10.3541 10.2688)">
<stop offset="0.35" stop-color="#FFC200"/>
<stop offset="0.51" stop-color="#FFBD07"/>
<stop offset="0.72" stop-color="#FFAF19"/>
<stop offset="0.98" stop-color="#FF9737"/>
<stop offset="1" stop-color="#FF953A"/>
</radialGradient>
<radialGradient id="paint3_radial_87_148" cx="0" cy="0" r="1" gradientUnits="userSpaceOnUse" gradientTransform="translate(13.8282 18.8715) scale(14.9733 14.8499)">
<stop offset="0.35" stop-color="#FFC200"/>
<stop offset="0.51" stop-color="#FFBD07"/>
<stop offset="0.72" stop-color="#FFAF19"/>
<stop offset="0.98" stop-color="#FF9737"/>
<stop offset="1" stop-color="#FF953A"/>
</radialGradient>
<radialGradient id="paint4_radial_87_148" cx="0" cy="0" r="1" gradientUnits="userSpaceOnUse" gradientTransform="translate(27.5463 16.3246) scale(10.3541 10.2688)">
<stop offset="0.35" stop-color="#FFC200"/>
<stop offset="0.51" stop-color="#FFBD07"/>
<stop offset="0.72" stop-color="#FFAF19"/>
<stop offset="0.98" stop-color="#FF9737"/>
<stop offset="1" stop-color="#FF953A"/>
</radialGradient>
<radialGradient id="paint5_radial_87_148" cx="0" cy="0" r="1" gradientUnits="userSpaceOnUse" gradientTransform="translate(26.7586 18.8715) scale(14.9733 14.8499)">
<stop offset="0.35" stop-color="#FFC200"/>
<stop offset="0.51" stop-color="#FFBD07"/>
<stop offset="0.72" stop-color="#FFAF19"/>
<stop offset="0.98" stop-color="#FF9737"/>
<stop offset="1" stop-color="#FF953A"/>
</radialGradient>
<radialGradient id="paint6_radial_87_148" cx="0" cy="0" r="1" gradientUnits="userSpaceOnUse" gradientTransform="translate(40.4849 16.3246) scale(10.3541 10.2688)">
<stop offset="0.35" stop-color="#FFC200"/>
<stop offset="0.51" stop-color="#FFBD07"/>
<stop offset="0.72" stop-color="#FFAF19"/>
<stop offset="0.98" stop-color="#FF9737"/>
<stop offset="1" stop-color="#FF953A"/>
</radialGradient>
<radialGradient id="paint7_radial_87_148" cx="0" cy="0" r="1" gradientUnits="userSpaceOnUse" gradientTransform="translate(39.6972 18.8715) scale(14.9733 14.8499)">
<stop offset="0.35" stop-color="#FFC200"/>
<stop offset="0.51" stop-color="#FFBD07"/>
<stop offset="0.72" stop-color="#FFAF19"/>
<stop offset="0.98" stop-color="#FF9737"/>
<stop offset="1" stop-color="#FF953A"/>
</radialGradient>
<radialGradient id="paint8_radial_87_148" cx="0" cy="0" r="1" gradientUnits="userSpaceOnUse" gradientTransform="translate(53.4154 16.3246) scale(10.3541 10.2688)">
<stop offset="0.35" stop-color="#FFC200"/>
<stop offset="0.51" stop-color="#FFBD07"/>
<stop offset="0.72" stop-color="#FFAF19"/>
<stop offset="0.98" stop-color="#FF9737"/>
<stop offset="1" stop-color="#FF953A"/>
</radialGradient>
<radialGradient id="paint9_radial_87_148" cx="0" cy="0" r="1" gradientUnits="userSpaceOnUse" gradientTransform="translate(52.6273 18.8715) scale(14.9733 14.8499)">
<stop offset="0.35" stop-color="#FFC200"/>
<stop offset="0.51" stop-color="#FFBD07"/>
<stop offset="0.72" stop-color="#FFAF19"/>
<stop offset="0.98" stop-color="#FF9737"/>
<stop offset="1" stop-color="#FF953A"/>
</radialGradient>
</defs>
</svg>
